<svg xmlns="http://www.w3.org/2000/svg" xmlns:xlink="http://www.w3.org/1999/xlink" viewBox="0 0 477.14 102.89"><defs><style>.cls-1{fill:url(#Degradado_sin_nombre_29);}.cls-2{fill:url(#Degradado_sin_nombre_29-2);}.cls-3{fill:url(#Degradado_sin_nombre_29-3);}.cls-4{fill:url(#Degradado_sin_nombre_29-4);}.cls-5{fill:url(#Degradado_sin_nombre_29-5);}.cls-6{fill:#e36158;}</style><linearGradient id="Degradado_sin_nombre_29" x1="120.78" y1="10.48" x2="120.78" y2="102.89" gradientUnits="userSpaceOnUse"><stop offset="0" stop-color="#e26158"/><stop offset="0.58" stop-color="#e36c53"/><stop offset="1" stop-color="#eea97a"/></linearGradient><linearGradient id="Degradado_sin_nombre_29-2" x1="240.4" y1="20.54" x2="240.4" y2="31.98" xlink:href="#Degradado_sin_nombre_29"/><linearGradient id="Degradado_sin_nombre_29-3" x1="307" y1="9.69" x2="307" y2="101.19" xlink:href="#Degradado_sin_nombre_29"/><linearGradient id="Degradado_sin_nombre_29-4" x1="389.39" y1="31.17" x2="389.39" y2="99.15" xlink:href="#Degradado_sin_nombre_29"/><linearGradient id="Degradado_sin_nombre_29-5" x1="437.91" y1="13.28" x2="437.91" y2="102.19" xlink:href="#Degradado_sin_nombre_29"/></defs><title>Adventio</title><g id="Capa_2" data-name="Capa 2"><g id="Capa_2-2" data-name="Capa 2"><path class="cls-1" d="M193.25,13.9l-.66,12.63a.5.5,0,0,1-.8.37L174.59,14a.5.5,0,0,0-.77.23l-18.9,52.65a.5.5,0,0,1-1,0L139.62,14.3a.5.5,0,0,0-.8-.25L120.72,28.93a.5.5,0,0,1-.7-.07C103.17,8.77,71.07,11.58,66.82,12a.5.5,0,0,0-.44.53l4.18,66.76a.5.5,0,0,1-1,.18L48.72,10.84a.5.5,0,0,0-.54-.35L30.07,12.67a.5.5,0,0,0-.43.37L13.55,76.31a.5.5,0,0,1-.36.36L.37,80.11a.5.5,0,0,0-.36.6l1.94,8.39a.5.5,0,0,0,.47.39l8,.31a.5.5,0,0,1,.46.64L8.67,98.5a.5.5,0,0,0,.41.63l14.62,2.26a.5.5,0,0,0,.56-.35l2.87-9.78a.5.5,0,0,1,.51-.36l22.54,1.29a.5.5,0,0,1,.46.41l1.45,8.32a.5.5,0,0,0,.61.4L71.08,97a.5.5,0,0,1,.62.46l.24,3.86a.5.5,0,0,0,.48.47c5.26.13,54.57.36,57.72-37.73a.49.49,0,0,1,1-.12l12,37.54a.5.5,0,0,0,.45.35l19,1.1a.5.5,0,0,0,.49-.31l28.12-67.72a.5.5,0,0,1,1,.22l-3.36,64.49a.5.5,0,0,0,.47.53l44.19,2.41A.5.5,0,0,0,234,102l.64-18.29a.5.5,0,0,0-.48-.52l-23.73-1a.5.5,0,0,1-.48-.56l1.83-15.73a.5.5,0,0,1,.52-.44l13,.56a.5.5,0,0,0,.52-.45l1.43-15.09a.5.5,0,0,0-.46-.55l-10.84-.84a.5.5,0,0,1-.46-.56l1.23-10.75a.5.5,0,0,1,.53-.44l21.4,1.22a.5.5,0,0,0,.53-.45l.65-6.12V32l.37-11.44.85,0,.54-5.09a.5.5,0,0,0-.48-.55l-47.31-1.49A.5.5,0,0,0,193.25,13.9ZM34.77,70.08l7-18.6a.5.5,0,0,1,1,.08l3.14,16a.5.5,0,0,1-.37.58L35.36,70.74A.5.5,0,0,1,34.77,70.08Zm55.45,6.38L89.34,43a.49.49,0,0,1,.46-.51c3.47-.2,17.21-.53,19.31,13.43,2.31,15.42-14.85,20.2-18.29,21A.5.5,0,0,1,90.22,76.46Z"/><polygon class="cls-2" points="241.01 20.55 239.79 31.98 240.16 20.54 241.01 20.55"/><polygon class="cls-3" points="376.48 35.44 346.25 36.67 351.13 99.81 322.86 100.06 323.86 37.67 302.22 39.55 300.6 99.9 271.28 101.19 258.51 63.41 258.8 99.42 237.52 101.19 239.78 32.03 239.79 31.98 241.01 20.55 264.6 21.1 279.77 63.74 279.19 14.9 302.94 12.91 302.89 14.87 376.48 9.69 376.48 35.44"/><path class="cls-4" d="M400,46.35a49.87,49.87,0,0,0-1.3,11.38,50.45,50.45,0,0,0,.41,6.43l-1.74,35-17.57-.38-2.67-67.6,24.56,1.12Z"/><path class="cls-5" d="M437.9,13.28c-18.2,0-33.5,14-37.93,33.07a49.87,49.87,0,0,0-1.3,11.38,50.45,50.45,0,0,0,.41,6.43c2.75,21.5,19.08,38,38.82,38,21.67,0,39.24-19.91,39.24-44.46S459.57,13.28,437.9,13.28ZM436,77.18c-9.48,0-15.66-8.18-15.66-19.45s6.37-19,15.84-19S452,48,452,59.28,445.46,77.18,436,77.18Z"/><ellipse class="cls-6" cx="393.88" cy="10.27" rx="13.01" ry="10.27"/></g></g></svg>